<svg id="Слой_1" data-name="Слой 1" xmlns="http://www.w3.org/2000/svg" viewBox="0 0 1713.17 1775.32"><defs><style>.cls-1{fill:#943d99;}</style></defs><title>Безымянный-1</title><path class="cls-1" d="M718.1,1186.61c-7.1-6.5-14.44-12.75-21.25-19.53-19.54-19.43-39.74-38.3-58.06-58.82-23.18-26-43.76-54.1-62.68-83.42a456.82,456.82,0,0,1-43.57-85.72c-11.61-30.6-23-61.44-31.69-93-7.34-26.67-11.23-54.35-15.56-81.76a480.62,480.62,0,0,1-5.22-106.13c2.42-37.39,6.42-74.73,17.92-110.81,3.42-10.72,5.51-21.9,7.62-33,1.92-10.1,8.48-16.6,15.67-23,16.42-14.51,32.26-29.71,49.19-43.58,19.18-15.72,38.28-31.91,59.23-45,31.15-19.41,65.18-32.68,101.21-41.16,35-8.23,70.12-13.17,106-12.71,43.66.57,86.27,7.86,128.22,19.76,36.91,10.47,72.28,25,106.32,42.28,25.72,13.06,50.34,28.44,74.68,44,22.64,14.45,44.28,30.48,66.36,45.83a27.76,27.76,0,0,1,3.2,2.5c4.34,4.1,3.94,6.94-1.84,8.61-7.57,2.19-15.45,3.31-23,5.46-19.76,5.6-39.67,10.78-59.08,17.43-43.17,14.8-86.31,29.77-129,45.85-38.68,14.57-77,30.25-111.25,54.13-17,11.85-35.11,22.16-51.82,34.39-12.69,9.3-24.46,20-35.75,31-12.09,11.79-23.62,24.25-34.54,37.14-19.82,23.39-36.23,49.13-47.57,77.67-8,20.13-16.33,40.41-21.25,61.39-5.43,23.16-8.22,47.11-10.17,70.88a275.56,275.56,0,0,0,4,73.6c8.29,44,23.26,85.44,50.22,121.64,13.19,17.72,26.53,35.67,42.11,51.2,28.47,28.39,62.63,48.65,99.85,64,23.35,9.64,47.23,17,72.25,20.18,28.29,3.62,56.59,5,85.17,1.84a361.93,361.93,0,0,0,75.25-16.54c8.47-2.84,16.62-6.64,24.92-10,.49.66,1,1.31,1.49,2-3,3-5.54,6.58-8.93,9-41.86,29.81-85.29,56.9-131.67,79.4-45.25,21.94-92.55,37.61-141,50.15-40.08,10.38-80.74,18-122.24,19.41-31.17,1-62.4,1.85-93.57,1.12-36-.85-71.65-5.67-106.41-15.47-28.47-8-57.32-15.17-85-25.51-23.14-8.65-45.48-20.14-66.92-32.54-37.48-21.69-72.5-47.35-102.23-78.84-21.94-23.24-41.57-48.84-60.63-74.57-18.18-24.56-30.19-52.79-43.19-80.39-16.13-34.26-24.57-70.78-31.9-107.45-4.63-23.13-5.74-47-7.62-70.63a402.22,402.22,0,0,1,1.46-79c3.23-27.52,8.26-54.84,11.48-82.36,3.34-28.53,12.81-55.36,21.4-82.41,5.11-16.1,11.74-31.76,18.38-47.32,12.57-29.43,24.44-59.26,38.87-87.77,12.08-23.88,27.26-46.22,41.34-69.07a302,302,0,0,1,38.8-50.92c5-5.25,11.38-9.23,16.47-14.44a113.94,113.94,0,0,0,14.68-17.66,369.42,369.42,0,0,1,49.54-61.54c23.42-23.45,48-45.83,73-67.55,14.44-12.53,30.68-23,46.32-34.11,9.37-6.66,18.81-13.32,28.78-19,22.34-12.75,45-25,67.59-37.24,8.46-4.6,17.14-8.79,25.72-13.17.43.6.87,1.2,1.3,1.81-3.23,3.43-6,7.56-9.78,10.18-24.2,16.68-42.45,39.34-60.36,61.89-18.21,22.93-35.59,46.84-50.49,72-16.17,27.32-31.37,55.56-40.6,86.27-10.91,36.3-20.69,72.94-31.73,109.2-5,16.38-12.18,32.08-17.74,48.31-9.42,27.52-18.9,55.05-27.26,82.9a310.75,310.75,0,0,0-10.33,47.57c-4.41,32.67-6.47,65.44-4.74,98.59,1.46,27.94,6.47,55.23,12.4,82.2,5.25,23.87,14.32,47,22.88,70a312.93,312.93,0,0,0,20.58,44.86,493.2,493.2,0,0,0,31.39,48.08c26.9,36.79,60,67.45,97.07,93.69a417.15,417.15,0,0,0,110.41,55.62c8.8,2.92,17.4,6.41,26.2,9.31,3,1,6.26,1,9.41,1.41ZM313.78,450.09l-2.08-1.28c-1.2,1.45-2.71,2.75-3.57,4.38-15.58,29.31-32.34,58.08-46.17,88.2-10.5,22.86-17.83,47.26-25.54,71.31-13.19,41.14-19.53,83.54-20.09,126.72-.27,20.32-.2,40.72,1.18,61a502.66,502.66,0,0,0,7.05,55.74c3.59,19.74,8.37,39.3,13.51,58.71,3.06,11.53,7.64,22.7,11.89,33.89,5.47,14.36,10.35,29,17.18,42.76,14.62,29.38,31.35,57.65,51.52,83.59,14,18,29.24,34.92,44.17,52.12,1.41,1.62,4.51,1.77,6.83,2.61-.52-2.42-.37-5.28-1.65-7.19-8.76-13.12-17.82-26.06-26.79-39a604.09,604.09,0,0,1-52.52-91.51c-16-35-30.27-70.59-39.15-108.11-9.75-41.25-15.37-83.07-15.49-125.5,0-15.81.77-31.62,1.26-47.43a90.44,90.44,0,0,1,.73-9.45c2.4-17.9,4.44-35.86,7.44-53.65,2.55-15.1,5.67-30.15,9.57-45,3.67-13.94,8.6-27.55,13.12-41.26,9.82-29.84,20.58-59.29,35.43-87.09C305.91,466.58,309.73,458.28,313.78,450.09Z" transform="translate(-143.14 -94.68)"/><path class="cls-1" d="M1199.32,1261.8a84.35,84.35,0,0,1-2.4,9.42c-18.27,48.54-39.37,95.85-65.45,140.67-19.11,32.83-40.43,64.38-66,92.72-27.17,30.17-56.69,57.63-91.08,79.74-33.07,21.26-69.18,35-106.39,46.77-34.32,10.86-69.58,15.3-105.19,18.43-40.42,3.56-80.81,4.33-121.13-.84-24.61-3.15-49.18-6.78-73.72-10.49-7-1.07-13.92-3.17-21.81-5,.87,1.56,1,2.38,1.46,2.54,17.32,6.42,34.31,14.09,52.09,18.84,25.45,6.81,51.44,11.63,77.27,17a153.27,153.27,0,0,0,24.84,3.3c32,1.25,64.2,4,96.15,2.52a484,484,0,0,0,127.63-23.08c33.74-11,65.41-26.74,95.29-45.45,32.62-20.42,62.65-44.74,88.05-73.81,22.72-26,44.35-53.1,57.65-85.62,9-21.91,19.45-43.32,26.63-65.8a659.8,659.8,0,0,0,19.83-78.75c7.64-40.59,14.39-81.42,19.2-122.43,1.61-13.68,6.92-23.43,14.61-33.65,14.17-18.82,25.17-39.53,34.39-61.27a411.21,411.21,0,0,0,30.15-112.74c1.21-10.27.59-20.79.43-31.19q-.45-28.07-1.43-56.11c-.15-4.24-1.77-8.41-2-12.66-.14-2.11,1.24-4.31,1.93-6.47,1.82,1.07,4.28,1.69,5.36,3.27,17.73,25.85,37.13,50.75,48.37,80.47,7.19,19,14.23,38,20.76,57.27,7.91,23.29,16.33,46.49,22.42,70.27,5.08,19.83,7.78,40.35,10.3,60.71,2.46,19.93,3.41,40.05,4.94,60.09.65,8.55,1.31,17.12,1.57,25.69,1.09,36.59,3.35,73.2,2.71,109.76-.79,45.14-9.35,89.42-21.66,132.78-16.49,58.11-38.38,114.07-72.94,164.12-19,27.55-41.06,52.73-65.13,76.16-34.63,33.72-73.7,60.4-118.82,78-16.59,6.48-33.22,12.84-49.82,19.28-.8.31-1.47.92-2.13,3,2,0,4,.34,5.82,0,24.54-5.15,49.39-5.21,74.29-4.77,28.41.5,56.82.88,85.23,1.3,31.79.47,63.59.72,95.38,1.51,9.43.23,18.83,2,28.25,3,11.86,1.26,23.73,2.38,35.57,3.75,3.1.36,6.49.8,9.06,2.34,1.86,1.13,3.72,4.27,3.51,6.28s-2.68,5.29-4.62,5.68c-18,3.62-36.16,6.75-54.26,10-16.4,2.93-32.78,6-49.22,8.63-8,1.29-16.12,1.71-24.17,2.57-15.89,1.69-31.76,3.59-47.67,5-5.57.5-11.24-.25-16.86-.11a53.94,53.94,0,0,0-8.49,1.35c-2,.38-3.9,1.23-5.88,1.37-16.8,1.15-33.6,2.29-50.42,3.23-9.21.52-18.46.52-27.68,1-14.12.76-28.21,2-42.33,2.56-14.39.58-28.83.23-43.22,1-22.51,1.14-45,3-67.5,4.22-13.77.73-27.57,1-41.35,1-30.72,0-61.45,0-92.16-.72-14.17-.34-28.28-2.58-42.44-3.64-15.74-1.17-31.52-1.7-47.24-3-25.4-2.14-50.8-4.32-76.12-7.2-22.58-2.56-45.08-5.82-67.54-9.27-12.05-1.86-23.85-5.38-35.91-7-9.47-1.28-18.08-4.39-27-7.19-7.67-2.4-15.12-9.55-24.54-5.88-.79.31-2.79-.76-3.19-1.65a3.69,3.69,0,0,1,.92-3.48c2.66-1.63,5.52-3.61,8.48-4,23-2.76,46.08-5.81,69.22-7.49,22.26-1.61,44.64-1.7,67-2.45,22.8-.75,45.6-2,68.41-2.08,20.49-.08,41,1.15,61.47,1.74a49.59,49.59,0,0,0,15.31-1.5c-2.44-1-4.8-2.29-7.31-3.07-28.86-9-58-17.36-86.55-27.14-35.06-12-69.14-26.45-102.86-42a770.09,770.09,0,0,1-93.73-51.55c-20.91-13.42-41.67-27.2-61.55-42.09-19.31-14.46-37.69-30.21-56-46-30-25.85-58.05-53.8-82.54-85-19-24.14-38.27-48.18-55-73.86-24.79-38.1-47-77.9-64.81-119.8-8.93-21-15.72-42.85-23.49-64.31-2.72-7.51-5.48-15-8.22-22.52l2.41-1.5c3.27,4,6.92,7.67,9.75,11.92,24.07,36.19,52.35,68.63,86,96.14,22.55,18.43,44.84,37.33,68.64,54,33.7,23.68,69.42,44.2,107.88,59.48,18.49,7.34,36.76,15.37,55.6,21.65,14,4.67,28.73,7.57,43.31,10.27,16.17,3,32.53,5.11,48.86,7.12a262,262,0,0,0,30.38,2.21c33.67.2,67.36.75,101-.39a476.85,476.85,0,0,0,64.63-6.76c25-4.32,49.66-10.76,74.41-16.48,39-9,75.67-24.6,111.61-41.5,42.6-20,83.61-43.33,119.21-74.65,24.93-21.93,49-44.86,73.1-67.71,6.63-6.29,12-13.91,18-20.92Z" transform="translate(-143.14 -94.68)"/><path class="cls-1" d="M1339.83,1742.63a16.54,16.54,0,0,1,1.28-2.3c12.93-16.8,26.73-33,38.66-50.49,24.24-35.53,45.86-72.66,62.38-112.5,9.69-23.36,20.09-46.6,27.45-70.72,10-32.78,18.81-66.07,25.55-99.67a920.15,920.15,0,0,0,15.22-103.75c2.62-31.19,1.33-62.73,1.06-94.11a508.62,508.62,0,0,0-2.84-52.07c-2.66-24-5.85-47.91-10.33-71.59-4.61-24.37-10.81-48.45-16.73-72.56a502.67,502.67,0,0,0-29.89-85.7c-5.91-13.18-10.81-26.85-17.3-39.73-7.9-15.7-16-31.47-25.8-46-16.51-24.52-34-48.42-51.87-72-21.7-28.63-47.55-53.23-76.31-74.72-23.88-17.83-47.62-35.87-72-53.06-9.9-7-21.21-12-31.89-17.94-1.18-.65-2.68-1-3.52-2-1.57-1.76-3.62-3.79-3.78-5.84-.1-1.18,2.92-3.18,4.87-3.85,10.9-3.73,21.78-7.61,32.89-10.62,37.73-10.2,76.08-16.06,115.11-19.58,32.77-3,65.43-3.64,98.17-3.24,32.1.39,64.12,2.89,95.27,11.4,21.27,5.81,42.76,11.31,63.35,19.06,25.76,9.68,49.5,23.59,72.75,38.52,28.73,18.45,54.45,40.29,78.13,64.58,25.64,26.3,47.28,55.8,66.77,86.9,16.76,26.74,28.42,55.9,39.61,85.14,5.2,13.59,8,28.29,10.4,42.73,3.79,22.9,7.73,45.93,9,69,1.43,25.84.6,51.87-.46,77.77a556.83,556.83,0,0,1-5.54,56.6c-6.1,42.19-17.11,83.11-31.53,123.29-13.71,38.21-31.09,74.66-49.86,110.47-8.57,16.36-18.85,31.91-29.35,47.15-16.64,24.16-33.62,48.12-51.4,71.45-10.65,14-22.91,26.75-34.79,39.76-13.86,15.18-27.42,30.74-42.31,44.88-35.06,33.29-71.31,65.32-111.37,92.59-25.39,17.29-50.75,34.84-77.44,49.94-22.73,12.86-47.3,22.47-71.16,33.27-2.94,1.33-6.58,1.1-9.89,1.59C1340.24,1744.05,1340,1743.34,1339.83,1742.63Z" transform="translate(-143.14 -94.68)"/><path class="cls-1" d="M1249.44,173.22c-3.39-.67-6.78-1.89-10.18-1.92-23.7-.23-47.41-.74-71.09-.11-18.49.5-37,2-55.39,4-16.36,1.79-32.8,3.9-48.81,7.62-41.66,9.67-82.85,21.35-121.69,39.53a730.93,730.93,0,0,0-67.5,36.14c-14.8,8.93-27.82,20.79-41.86,31-2.71,2-6.47,3.67-9.69,3.59-32.57-.81-64.67,4-96.24,10.45-49.83,10.22-97.3,27.73-141,54.34-5.2,3.17-9.84,7.24-15,10.55-1.45.94-3.67.68-5.54,1,.2-1.85-.17-4,.67-5.5,18-31.69,37.88-62,62.47-89.2,21.89-24.24,44.79-47.24,70.67-67.12,24.93-19.16,50.64-37.41,79.14-50.9,26.51-12.54,53.11-25.59,80.92-34.54,28.2-9.07,57.83-13.83,87-19.68,46.67-9.37,94-8.24,141.2-6.93,20,.56,39.86,4.73,59.81,7,37,4.22,72.79,14,108,25.59a722.9,722.9,0,0,1,69.37,27.31c26.54,11.94,53.06,24.28,78.25,38.77,34.79,20,69.43,40.65,102.09,63.89,27.65,19.69,55.11,40.18,78.87,64.9,17.36,18.07,36.23,34.87,52.08,54.16,23.17,28.2,46.87,56,67,86.79,17.54,26.87,35.84,53.26,50.58,81.75,12.24,23.65,23.88,47.77,33.44,72.59,11.69,30.32,21,61.54,31.09,92.47,1.31,4,.78,8.64,1.1,13l-3.15.83c-2.45-4.07-4.57-8.39-7.4-12.18-10.25-13.73-20.24-27.7-31.26-40.79-9.6-11.38-20.21-22-30.81-32.45a408.9,408.9,0,0,0-67.72-53.82,646.73,646.73,0,0,0-90.31-48c-24.12-10.51-49.52-18.69-75-25.25-25.74-6.62-52.15-11.88-78.58-14.24-28-2.51-56.4-1.18-84.62-.95-10.34.08-20.66,2.2-31,2.55-3.16.11-6.87-2-9.55-4.06-19.26-15-38.07-30.54-57.5-45.28-17.46-13.25-34.73-27-53.5-38.18-29.33-17.4-59.82-32.86-89.93-48.94-5-2.64-10.52-4.09-15.68-6.39-13.8-6.15-27.33-13-41.36-18.58s-28.46-10.22-42.85-14.85c-16.54-5.32-33-11.25-49.91-15-22.66-5-45.72-8.2-68.65-12-3.51-.57-7.25.35-10.81-.08-3.88-.47-5.23-2.6-2.23-6a13.91,13.91,0,0,1,2.4-2.39c17-11.37,32-25.66,50.93-34.44,16.77-7.8,32.66-17.52,49.56-25,17.12-7.57,34.84-13.9,52.6-19.88,20.3-6.85,40.7-13.66,61.49-18.71a410.06,410.06,0,0,1,54.72-8.95c24.9-2.57,49.94-3.78,74.94-5.32,5.6-.34,11.26.39,16.9.56,2.82.08,5.64,0,8.47,0C1249.35,175.13,1249.4,174.18,1249.44,173.22Z" transform="translate(-143.14 -94.68)"/></svg>